<svg version="1.1" id="Layer_1" xmlns="http://www.w3.org/2000/svg" xmlns:xlink="http://www.w3.org/1999/xlink" x="0px" y="0px"
	 viewBox="0 0 1600 400" style="enable-background:new 0 0 1600 400;" xml:space="preserve">
<g>
	<rect x="800" y="0" style="fill:none;" width="400" height="400"/>
	<path style="fill:#FFFFFF;" d="M957.333,248v32h85.333v-32v-21.333h-85.333V248z M968,237.333h64V248h-64V237.333z M968,258.667h64
		v10.667h-64V258.667z M1042.667,152v-32h-85.333v32v21.333h85.333V152z M1064,152h-10.667v21.333V184H946.667v-10.667V152H936
		c-10.667,0-21.333,10.667-21.333,21.333v53.333C914.667,237.333,925.333,248,936,248h10.667v-21.333V216h106.667v10.667V248H1064
		c10.667,0,21.333-10.667,21.333-21.333v-53.333C1085.333,162.667,1074.667,152,1064,152z"/>
	<rect x="1200" y="0" style="fill:none;" width="400" height="400"/>
	<g>
		<path style="fill:#FFFFFF;" d="M1450.15,221.69c-9.263,0-17.434,4.413-22.772,11.171l-49.513-25.321
			c0.648-2.418,1.114-4.916,1.114-7.544c0-2.862-0.553-5.556-1.325-8.178l49.294-25.204c5.309,7.064,13.691,11.681,23.209,11.681
			c16.123,0,29.166-13.043,29.166-29.151c0-16.094-13.043-29.144-29.166-29.144c-16.087,0-29.144,13.05-29.144,29.144
			c0,2.636,0.466,5.141,1.121,7.566l-49.505,25.321c-5.345-6.765-13.531-11.193-22.808-11.193
			c-16.109,0-29.144,13.057-29.144,29.158s13.035,29.151,29.144,29.151c9.533,0,17.907-4.632,23.238-11.703l49.272,25.204
			c-0.772,2.614-1.333,5.331-1.333,8.2c0,16.101,13.057,29.151,29.144,29.151c16.123,0,29.166-13.05,29.166-29.151
			C1479.315,234.733,1466.273,221.69,1450.15,221.69z"/>
	</g>
	<rect y="0" style="fill:none;" width="400" height="400"/>
	<g>
		<path style="fill:#FFFFFF;" d="M241.88,204.323h-7.849l-35.085-52.64c0.621-1.256,1.038-2.625,1.038-4.12
			c0-5.232-4.23-9.463-9.458-9.463c-5.224,0-9.454,4.231-9.454,9.463c0,5.229,4.231,9.459,9.454,9.459
			c0.195,0,0.359-0.102,0.545-0.11l31.6,47.412h-83.199l31.591-47.412c0.195,0.009,0.355,0.11,0.55,0.11
			c5.224,0,9.458-4.23,9.458-9.459c0-5.232-4.235-9.463-9.458-9.463c-5.219,0-9.454,4.231-9.454,9.463
			c0,1.495,0.417,2.852,1.033,4.111l-35.085,52.65h-7.84c-11.153,0-17.387,8.665-13.862,19.241l17.587,42.628
			C127.512,276.777,139.521,280,150.665,280h60.805c11.148,0,23.152-3.223,26.69-13.808l17.574-42.628
			C259.267,212.988,253.015,204.323,241.88,204.323 M143.246,256.351c0,2.617-2.115,4.732-4.727,4.732
			c-2.616,0-4.732-2.115-4.732-4.732v-28.38c0-2.617,2.115-4.731,4.732-4.731c2.612,0,4.727,2.114,4.727,4.731V256.351z
			 M171.613,256.351c0,2.617-2.115,4.732-4.727,4.732c-2.612,0-4.727-2.115-4.727-4.732v-28.38c0-2.617,2.115-4.731,4.727-4.731
			c2.612,0,4.727,2.114,4.727,4.731V256.351z M199.984,256.351c0,2.617-2.115,4.732-4.732,4.732c-2.612,0-4.727-2.115-4.727-4.732
			v-28.38c0-2.617,2.115-4.731,4.727-4.731c2.617,0,4.732,2.114,4.732,4.731V256.351z M228.351,256.351
			c0,2.617-2.115,4.732-4.727,4.732c-2.616,0-4.727-2.115-4.727-4.732v-28.38c0-2.617,2.111-4.731,4.727-4.731
			c2.612,0,4.727,2.114,4.727,4.731V256.351z"/>
		<path style="fill:#FFFFFF;" d="M258.794,120c-19.765,0-35.787,16.022-35.787,35.787c0,19.765,16.022,35.787,35.787,35.787
			c19.765,0,35.787-16.022,35.787-35.787C294.581,136.022,278.558,120,258.794,120z M279.751,160.781h-17v17h-9v-17h-17v-9h17v-17h9
			v17h17V160.781z"/>
	</g>
	<rect x="400" y="0" style="fill:none;" width="400" height="400"/>
	<g>
		<g>
			<polygon style="fill:#FFFFFF;" points="455.398,204.28 503.068,251.781 531.348,251.781 483.68,204.28 531.349,156.781 
				503.068,156.781 			"/>
			<polygon style="fill:#FFFFFF;" points="539.93,204.28 587.599,156.781 559.318,156.781 511.648,204.28 559.318,251.781 
				587.598,251.781 			"/>
		</g>
		<path style="fill:#FFFFFF;" d="M729.76,195.273h-7.849l-35.085-52.64c0.621-1.256,1.038-2.625,1.038-4.12
			c0-5.232-4.23-9.463-9.458-9.463c-5.224,0-9.455,4.231-9.455,9.463c0,5.229,4.231,9.459,9.455,9.459
			c0.195,0,0.359-0.102,0.545-0.11l31.6,47.412h-83.199l31.591-47.412c0.195,0.009,0.355,0.11,0.55,0.11
			c5.224,0,9.458-4.23,9.458-9.459c0-5.232-4.235-9.463-9.458-9.463c-5.219,0-9.454,4.231-9.454,9.463
			c0,1.495,0.417,2.852,1.033,4.111l-35.085,52.65h-7.84c-11.153,0-17.387,8.665-13.862,19.241l17.587,42.628
			c3.521,10.585,15.529,13.808,26.673,13.808h60.805c11.148,0,23.152-3.223,26.69-13.808l17.574-42.628
			C747.148,203.939,740.895,195.273,729.76,195.273 M631.126,247.302c0,2.617-2.115,4.732-4.727,4.732
			c-2.616,0-4.732-2.115-4.732-4.732v-28.38c0-2.617,2.115-4.731,4.732-4.731c2.612,0,4.727,2.114,4.727,4.731V247.302z
			 M659.493,247.302c0,2.617-2.115,4.732-4.727,4.732s-4.727-2.115-4.727-4.732v-28.38c0-2.617,2.115-4.731,4.727-4.731
			s4.727,2.114,4.727,4.731V247.302z M687.864,247.302c0,2.617-2.115,4.732-4.732,4.732c-2.612,0-4.727-2.115-4.727-4.732v-28.38
			c0-2.617,2.115-4.731,4.727-4.731c2.617,0,4.732,2.114,4.732,4.731V247.302z M716.231,247.302c0,2.617-2.115,4.732-4.727,4.732
			c-2.616,0-4.727-2.115-4.727-4.732v-28.38c0-2.617,2.111-4.731,4.727-4.731c2.612,0,4.727,2.114,4.727,4.731V247.302z"/>
	</g>
</g>
</svg>
