<svg version="1.1" xmlns="http://www.w3.org/2000/svg" xmlns:xlink="http://www.w3.org/1999/xlink" x="0px" y="0px"
	 viewBox="0 0 301.429 50" style="enable-background:new 0 0 301.429 50;" xml:space="preserve">
<g id="text">
	<g>
		<path style="fill:#FFFFFF;" d="M0,8.562c0-0.511,0.087-0.968,0.26-1.37C0.434,6.79,0.662,6.453,0.945,6.178
			c0.283-0.274,0.612-0.483,0.986-0.63c0.374-0.146,0.762-0.219,1.164-0.219c0.53,0,1.046,0.128,1.548,0.384
			C5.146,5.968,5.598,6.37,6,6.918l20.739,31.26V7.521c0-0.365,0.064-0.685,0.192-0.959c0.127-0.274,0.301-0.502,0.521-0.685
			c0.219-0.182,0.466-0.319,0.74-0.411c0.274-0.091,0.557-0.137,0.849-0.137c0.274,0,0.548,0.046,0.822,0.137
			c0.274,0.092,0.521,0.229,0.74,0.411c0.219,0.183,0.393,0.411,0.521,0.685c0.128,0.274,0.192,0.594,0.192,0.959v33.644
			c0,0.511-0.092,0.968-0.274,1.37c-0.183,0.402-0.429,0.74-0.739,1.014c-0.311,0.274-0.663,0.484-1.055,0.63
			c-0.393,0.146-0.808,0.219-1.247,0.219c-0.53,0-1.059-0.127-1.589-0.384c-0.53-0.256-0.996-0.658-1.397-1.205L4.603,11.986v30.246
			c0,0.365-0.068,0.681-0.205,0.946c-0.137,0.264-0.315,0.489-0.534,0.671c-0.22,0.183-0.466,0.32-0.74,0.411
			c-0.274,0.092-0.557,0.137-0.849,0.137c-0.585,0-1.11-0.178-1.576-0.534C0.233,43.507,0,42.964,0,42.233V8.562z"/>
		<path style="fill:#FFFFFF;" d="M41.838,44.397c-0.311,0-0.608-0.064-0.891-0.191c-0.284-0.128-0.539-0.301-0.767-0.521
			c-0.229-0.219-0.411-0.47-0.548-0.754c-0.137-0.283-0.206-0.58-0.206-0.89V7.685c0-0.292,0.055-0.58,0.165-0.863
			c0.11-0.283,0.269-0.534,0.479-0.754c0.21-0.219,0.452-0.398,0.726-0.534c0.274-0.137,0.575-0.205,0.904-0.205h20.438
			c0.676,0,1.178,0.205,1.507,0.616c0.329,0.411,0.493,0.864,0.493,1.356c0,0.512-0.165,0.973-0.493,1.383
			c-0.329,0.411-0.831,0.617-1.507,0.617H44.221v13.013h17.041c0.694,0,1.205,0.206,1.534,0.617
			c0.329,0.411,0.493,0.863,0.493,1.356c0,0.493-0.169,0.945-0.507,1.356c-0.338,0.411-0.845,0.617-1.521,0.617H44.221v14.164
			h18.685c0.676,0,1.178,0.205,1.507,0.617c0.329,0.411,0.493,0.863,0.493,1.356c0,0.512-0.164,0.973-0.493,1.383
			c-0.329,0.411-0.832,0.617-1.507,0.617H41.838z"/>
		<path style="fill:#FFFFFF;" d="M72.196,43.274c-0.274,0.402-0.58,0.69-0.918,0.864c-0.338,0.173-0.681,0.26-1.027,0.26
			c-0.292,0-0.576-0.055-0.849-0.165c-0.274-0.109-0.516-0.26-0.726-0.452c-0.21-0.192-0.379-0.415-0.507-0.671
			c-0.128-0.256-0.192-0.52-0.192-0.794c0-0.42,0.146-0.831,0.439-1.233l12.192-16.794L69.237,8.699
			c-0.256-0.328-0.383-0.694-0.383-1.096c0-0.31,0.078-0.603,0.233-0.877C69.241,6.453,69.442,6.21,69.689,6
			c0.246-0.21,0.53-0.374,0.849-0.494c0.319-0.119,0.644-0.178,0.973-0.178c0.383,0,0.753,0.087,1.11,0.26
			c0.356,0.174,0.671,0.462,0.945,0.864l10.301,14.822L94.524,6.453c0.292-0.402,0.607-0.69,0.945-0.864
			c0.338-0.173,0.689-0.26,1.055-0.26c0.292,0,0.571,0.055,0.836,0.165c0.264,0.109,0.497,0.251,0.699,0.425
			c0.201,0.173,0.36,0.384,0.479,0.63c0.118,0.247,0.178,0.507,0.178,0.781c0,0.201-0.032,0.397-0.096,0.589
			c-0.064,0.191-0.169,0.388-0.315,0.589L86.552,24.288l12.055,16.657c0.256,0.366,0.383,0.74,0.383,1.123
			c0,0.31-0.078,0.607-0.233,0.89c-0.155,0.283-0.356,0.529-0.603,0.739c-0.246,0.21-0.525,0.379-0.835,0.508
			c-0.311,0.127-0.63,0.191-0.959,0.191c-0.767,0-1.416-0.365-1.945-1.096L83.319,27.466L72.196,43.274z"/>
		<path style="fill:#FFFFFF;" d="M104.472,7.658c0-0.384,0.069-0.722,0.206-1.014c0.137-0.292,0.324-0.534,0.562-0.726
			c0.237-0.192,0.502-0.338,0.794-0.438c0.292-0.101,0.593-0.151,0.904-0.151c0.602,0,1.155,0.192,1.657,0.575
			c0.502,0.384,0.753,0.968,0.753,1.753v34.438c0,0.384-0.068,0.722-0.205,1.014c-0.137,0.293-0.325,0.534-0.562,0.727
			c-0.238,0.191-0.502,0.333-0.794,0.424c-0.293,0.092-0.594,0.137-0.904,0.137c-0.603,0-1.155-0.191-1.658-0.575
			c-0.502-0.384-0.754-0.959-0.754-1.726V7.658z"/>
		<path style="fill:#FFFFFF;" d="M117.679,8.562c0-0.511,0.087-0.968,0.261-1.37c0.173-0.401,0.401-0.739,0.684-1.014
			c0.283-0.274,0.612-0.483,0.987-0.63c0.374-0.146,0.762-0.219,1.164-0.219c0.529,0,1.046,0.128,1.548,0.384
			c0.502,0.256,0.955,0.657,1.356,1.205l20.74,31.26V7.521c0-0.365,0.063-0.685,0.191-0.959c0.127-0.274,0.301-0.502,0.521-0.685
			c0.219-0.182,0.466-0.319,0.74-0.411c0.274-0.091,0.557-0.137,0.849-0.137c0.275,0,0.548,0.046,0.822,0.137
			c0.274,0.092,0.521,0.229,0.74,0.411c0.219,0.183,0.392,0.411,0.521,0.685c0.127,0.274,0.192,0.594,0.192,0.959v33.644
			c0,0.511-0.092,0.968-0.275,1.37c-0.183,0.402-0.429,0.74-0.74,1.014c-0.311,0.274-0.662,0.484-1.054,0.63
			c-0.393,0.146-0.808,0.219-1.247,0.219c-0.529,0-1.059-0.127-1.589-0.384c-0.53-0.256-0.996-0.658-1.397-1.205l-20.411-30.822
			v30.246c0,0.365-0.068,0.681-0.205,0.946c-0.138,0.264-0.315,0.489-0.534,0.671c-0.219,0.183-0.466,0.32-0.74,0.411
			c-0.275,0.092-0.558,0.137-0.85,0.137c-0.585,0-1.11-0.178-1.575-0.534c-0.466-0.356-0.699-0.899-0.699-1.63V8.562z"/>
		<path style="fill:#FFFFFF;" d="M156.832,7.658c0-0.384,0.068-0.722,0.205-1.014c0.137-0.292,0.32-0.534,0.548-0.726
			c0.228-0.192,0.493-0.338,0.794-0.438c0.301-0.101,0.607-0.151,0.917-0.151c0.603,0,1.155,0.192,1.658,0.575
			c0.502,0.384,0.754,0.968,0.754,1.753v23.041c0,1.771,0.296,3.301,0.89,4.589c0.593,1.287,1.374,2.356,2.342,3.205
			c0.968,0.85,2.073,1.479,3.315,1.89c1.242,0.411,2.511,0.617,3.808,0.617c1.297,0,2.566-0.205,3.809-0.617
			c1.241-0.411,2.351-1.04,3.328-1.89c0.977-0.849,1.763-1.918,2.357-3.205c0.593-1.288,0.89-2.818,0.89-4.589V7.658
			c0-0.384,0.069-0.722,0.206-1.014c0.137-0.292,0.319-0.534,0.548-0.726c0.229-0.192,0.494-0.338,0.794-0.438
			c0.301-0.101,0.607-0.151,0.918-0.151c0.603,0,1.155,0.192,1.658,0.575c0.502,0.384,0.753,0.968,0.753,1.753v23.15
			c0,2.411-0.424,4.503-1.273,6.274c-0.85,1.772-1.983,3.247-3.397,4.425c-1.416,1.178-3.041,2.055-4.877,2.631
			c-1.836,0.575-3.74,0.863-5.713,0.863c-1.972,0-3.876-0.288-5.712-0.863c-1.836-0.576-3.457-1.453-4.863-2.631
			c-1.407-1.178-2.535-2.653-3.383-4.425c-0.85-1.771-1.274-3.863-1.274-6.274V7.658z"/>
		<path style="fill:#FFFFFF;" d="M199.217,14.973c0,1.169,0.32,2.183,0.959,3.041c0.639,0.858,1.484,1.589,2.534,2.192
			c1.05,0.603,2.242,1.119,3.575,1.548c1.333,0.43,2.703,0.863,4.11,1.301c1.552,0.494,3.036,1.024,4.452,1.589
			c1.415,0.566,2.662,1.274,3.74,2.123c1.077,0.85,1.935,1.881,2.575,3.096c0.639,1.215,0.959,2.717,0.959,4.507
			c0,1.516-0.37,2.955-1.11,4.315c-0.74,1.362-1.767,2.512-3.083,3.453c-1.315,0.941-2.867,1.653-4.657,2.137
			c-1.79,0.483-3.726,0.726-5.809,0.726c-1.498,0-2.913-0.132-4.246-0.398c-1.334-0.264-2.566-0.63-3.699-1.096
			c-1.133-0.466-2.165-1.009-3.096-1.63c-0.931-0.62-1.753-1.297-2.466-2.027c-0.146-0.146-0.251-0.315-0.314-0.507
			c-0.064-0.192-0.096-0.388-0.096-0.589c0-0.256,0.05-0.516,0.151-0.781c0.1-0.264,0.233-0.502,0.398-0.712
			c0.164-0.21,0.347-0.384,0.548-0.521c0.201-0.137,0.402-0.205,0.603-0.205c0.329,0,0.662,0.119,1,0.356
			c0.338,0.237,0.671,0.475,1,0.712c0.584,0.42,1.223,0.836,1.918,1.247c0.694,0.411,1.466,0.777,2.315,1.096
			c0.849,0.32,1.78,0.576,2.794,0.767c1.013,0.192,2.132,0.288,3.356,0.288c1.333,0,2.575-0.137,3.726-0.411
			c1.15-0.275,2.146-0.685,2.986-1.233c0.84-0.548,1.502-1.233,1.986-2.055c0.484-0.822,0.726-1.699,0.726-2.63
			c0-1.297-0.32-2.393-0.959-3.288c-0.639-0.894-1.479-1.643-2.521-2.246c-1.04-0.603-2.228-1.118-3.561-1.548
			c-1.334-0.429-2.695-0.863-4.082-1.301c-1.516-0.494-2.982-1.041-4.397-1.644c-1.416-0.603-2.667-1.333-3.753-2.192
			c-1.087-0.858-1.955-1.886-2.603-3.083c-0.649-1.196-0.973-2.57-0.973-4.123c0-1.516,0.374-2.927,1.123-4.232
			c0.748-1.306,1.749-2.406,3-3.302c1.251-0.894,2.694-1.57,4.329-2.027C204.29,5.229,205.993,5,207.765,5
			c2.722,0,5.155,0.43,7.301,1.288c2.146,0.858,4.05,2.173,5.713,3.945c0.146,0.165,0.242,0.347,0.288,0.548
			c0.045,0.201,0.068,0.42,0.068,0.658c0,0.201-0.032,0.42-0.096,0.657c-0.064,0.237-0.173,0.452-0.328,0.644
			c-0.156,0.192-0.352,0.352-0.589,0.48c-0.238,0.128-0.521,0.192-0.85,0.192c-0.53,0-1.123-0.328-1.781-0.986
			c-0.585-0.439-1.201-0.864-1.849-1.274c-0.648-0.411-1.356-0.767-2.123-1.069c-0.767-0.301-1.589-0.543-2.465-0.726
			c-0.877-0.182-1.827-0.274-2.85-0.274c-1.023,0-2.068,0.119-3.137,0.356c-1.069,0.237-2.037,0.603-2.904,1.096
			c-0.868,0.493-1.575,1.133-2.123,1.918C199.491,13.238,199.217,14.078,199.217,14.973z"/>
	</g>
</g>
<g id="Layer_12">
	<linearGradient id="SVGID_1_" gradientUnits="userSpaceOnUse" x1="252.5085" y1="22.5152" x2="280.2115" y2="45.363">
		<stop  offset="0" style="stop-color:#B2D235"/>
		<stop  offset="0.05" style="stop-color:#A4CF41"/>
		<stop  offset="0.1444" style="stop-color:#7FC760"/>
		<stop  offset="0.2733" style="stop-color:#44BA93"/>
		<stop  offset="0.4048" style="stop-color:#00ABCC"/>
		<stop  offset="0.4171" style="stop-color:#01A7CA"/>
		<stop  offset="0.6082" style="stop-color:#1475B2"/>
		<stop  offset="0.7751" style="stop-color:#2250A0"/>
		<stop  offset="0.9097" style="stop-color:#2B3995"/>
		<stop  offset="0.9951" style="stop-color:#2E3191"/>
	</linearGradient>
	<path style="fill:url(#SVGID_1_);" d="M270.236,33.87l-10.855-14.034c-0.419-0.181-7.04-2.897-10.493,4.435
		c1.845,2.946,9.795,15.595,13.981,21.58c3.551,5.077,15.194,9.036,23.62-10.514C286.49,35.337,276.29,41.707,270.236,33.87z"/>
</g>
<g id="Layer_11">
	<linearGradient id="SVGID_2_" gradientUnits="userSpaceOnUse" x1="277.343" y1="34.5049" x2="296.4186" y2="0.7819">
		<stop  offset="0.0049" style="stop-color:#80298F"/>
		<stop  offset="0.1215" style="stop-color:#982387"/>
		<stop  offset="0.3673" style="stop-color:#D71274"/>
		<stop  offset="0.4455" style="stop-color:#EC0D6D"/>
		<stop  offset="0.4668" style="stop-color:#ED1A65"/>
		<stop  offset="0.5704" style="stop-color:#F1553F"/>
		<stop  offset="0.6469" style="stop-color:#F47A28"/>
		<stop  offset="0.6874" style="stop-color:#F5881F"/>
		<stop  offset="1" style="stop-color:#FFD300"/>
	</linearGradient>
	<path style="fill:url(#SVGID_2_);" d="M296.74,0c-11.296-0.026-13.502,7.007-15.627,11.389
		c-4.345,8.954-9.098,18.745-10.899,22.453l0.022,0.028c6.054,7.837,16.255,1.467,16.255,1.467c-0.002,0.003-0.004,0.007-0.005,0.01
		c2.531-5.032,8.526-16.951,10.066-20.027C299.794,8.844,305.584,0.021,296.74,0z"/>
</g>
<g id="multiply_2">
	<defs>
		<filter id="Adobe_OpacityMaskFilter" filterUnits="userSpaceOnUse" x="270.214" y="32.713" width="16.684" height="5.065">
			<feFlood  style="flood-color:white;flood-opacity:1" result="back"/>
			<feBlend  in="SourceGraphic" in2="back" mode="normal"/>
		</filter>
	</defs>
	<mask maskUnits="userSpaceOnUse" x="270.214" y="32.713" width="16.684" height="5.065" id="SVGID_3_">
		<g style="filter:url(#Adobe_OpacityMaskFilter);">
			<defs>
				<filter id="Adobe_OpacityMaskFilter_1_" filterUnits="userSpaceOnUse" x="270.214" y="32.713" width="16.684" height="5.065">
					<feFlood  style="flood-color:white;flood-opacity:1" result="back"/>
					<feBlend  in="SourceGraphic" in2="back" mode="normal"/>
				</filter>
			</defs>
			<mask maskUnits="userSpaceOnUse" x="270.214" y="32.713" width="16.684" height="5.065" id="SVGID_3_">
				<g style="filter:url(#Adobe_OpacityMaskFilter_1_);">
				</g>
			</mask>
			<linearGradient id="SVGID_4_" gradientUnits="userSpaceOnUse" x1="271.1642" y1="34.6039" x2="285.8535" y2="36.6778">
				<stop  offset="0" style="stop-color:#FFFFFF"/>
				<stop  offset="0.1292" style="stop-color:#F1F1F1"/>
				<stop  offset="0.3734" style="stop-color:#CCCCCC"/>
				<stop  offset="0.7036" style="stop-color:#919191"/>
				<stop  offset="1" style="stop-color:#575757"/>
			</linearGradient>
			<path style="mask:url(#SVGID_3_);fill:url(#SVGID_4_);" d="M270.762,32.713c-0.204,0.421-0.387,0.799-0.548,1.129l0.022,0.028
				c6.054,7.837,16.255,1.467,16.255,1.467c-0.002,0.003-0.004,0.007-0.005,0.01c0.127-0.255,0.267-0.532,0.413-0.82
				C284.46,35.811,276.102,39.48,270.762,32.713z"/>
		</g>
	</mask>
	<path style="opacity:0.4;" d="M270.762,32.713c-0.204,0.421-0.387,0.799-0.548,1.129l0.022,0.028
		c6.054,7.837,16.255,1.467,16.255,1.467c-0.002,0.003-0.004,0.007-0.005,0.01c0.127-0.255,0.267-0.532,0.413-0.82
		C284.46,35.811,276.102,39.48,270.762,32.713z"/>
</g>
<g id="multiply">
	<defs>
		<filter id="Adobe_OpacityMaskFilter_2_" filterUnits="userSpaceOnUse" x="248.889" y="19.196" width="10.907" height="5.655">
			<feFlood  style="flood-color:white;flood-opacity:1" result="back"/>
			<feBlend  in="SourceGraphic" in2="back" mode="normal"/>
		</filter>
	</defs>
	<mask maskUnits="userSpaceOnUse" x="248.889" y="19.196" width="10.907" height="5.655" id="SVGID_5_">
		<g style="filter:url(#Adobe_OpacityMaskFilter_2_);">
			<defs>
				<filter id="Adobe_OpacityMaskFilter_3_" filterUnits="userSpaceOnUse" x="248.889" y="19.196" width="10.907" height="5.655">
					<feFlood  style="flood-color:white;flood-opacity:1" result="back"/>
					<feBlend  in="SourceGraphic" in2="back" mode="normal"/>
				</filter>
			</defs>
			<mask maskUnits="userSpaceOnUse" x="248.889" y="19.196" width="10.907" height="5.655" id="SVGID_5_">
				<g style="filter:url(#Adobe_OpacityMaskFilter_3_);">
				</g>
			</mask>
			<linearGradient id="SVGID_6_" gradientUnits="userSpaceOnUse" x1="249.8191" y1="22.5948" x2="263.4799" y2="19.3162">
				<stop  offset="0" style="stop-color:#FFFFFF"/>
				<stop  offset="0.1292" style="stop-color:#F1F1F1"/>
				<stop  offset="0.3734" style="stop-color:#CCCCCC"/>
				<stop  offset="0.7036" style="stop-color:#919191"/>
				<stop  offset="1" style="stop-color:#575757"/>
			</linearGradient>
			<path style="mask:url(#SVGID_5_);fill:url(#SVGID_6_);" d="M259.796,20.373l-0.415-0.537c-0.419-0.181-7.04-2.897-10.493,4.435
				c0.102,0.163,0.226,0.361,0.364,0.581C252.524,18.444,258.171,19.813,259.796,20.373z"/>
		</g>
	</mask>
	<path style="opacity:0.4;" d="M259.796,20.373l-0.415-0.537c-0.419-0.181-7.04-2.897-10.493,4.435
		c0.102,0.163,0.226,0.361,0.364,0.581C252.524,18.444,258.171,19.813,259.796,20.373z"/>
</g>
<g id="Layer_8">
	<linearGradient id="SVGID_7_" gradientUnits="userSpaceOnUse" x1="234.2206" y1="46.5955" x2="254.1088" y2="14.0686">
		<stop  offset="0" style="stop-color:#EB008B"/>
		<stop  offset="0.2055" style="stop-color:#ED277D"/>
		<stop  offset="0.4535" style="stop-color:#EF516E"/>
		<stop  offset="0.5809" style="stop-color:#F06168"/>
		<stop  offset="0.6068" style="stop-color:#F16A60"/>
		<stop  offset="0.7882" style="stop-color:#F9A22C"/>
		<stop  offset="0.9229" style="stop-color:#FDC60C"/>
		<stop  offset="0.9951" style="stop-color:#FFD300"/>
	</linearGradient>
	<path style="fill:url(#SVGID_7_);" d="M232.705,42.155c0,0,8.306-18.987,10.28-23.84c2.511-6.171,7.329-9.643,11.706-4.273
		c4.376,5.37,4.712,5.804,4.712,5.804s-7.154-3.248-10.67,4.755c-3.515,8.004-5.534,12.737-8.63,19.518
		c-1.533,3.358-3.825,4.744-6.048,3.531C232.913,47.027,231.216,45.771,232.705,42.155z"/>
</g>
<g id="Layer_7">
	<defs>
		<filter id="Adobe_OpacityMaskFilter_4_" filterUnits="userSpaceOnUse" x="255.055" y="32.672" width="29.927" height="16.611">
			<feFlood  style="flood-color:white;flood-opacity:1" result="back"/>
			<feBlend  in="SourceGraphic" in2="back" mode="normal"/>
		</filter>
	</defs>
	<mask maskUnits="userSpaceOnUse" x="255.055" y="32.672" width="29.927" height="16.611" id="SVGID_8_">
		<g style="filter:url(#Adobe_OpacityMaskFilter_4_);">
			<defs>
				<filter id="Adobe_OpacityMaskFilter_5_" filterUnits="userSpaceOnUse" x="255.055" y="32.672" width="29.927" height="16.611">
					<feFlood  style="flood-color:white;flood-opacity:1" result="back"/>
					<feBlend  in="SourceGraphic" in2="back" mode="normal"/>
				</filter>
			</defs>
			<mask maskUnits="userSpaceOnUse" x="255.055" y="32.672" width="29.927" height="16.611" id="SVGID_8_">
				<g style="filter:url(#Adobe_OpacityMaskFilter_5_);">
				</g>
			</mask>
			<linearGradient id="SVGID_9_" gradientUnits="userSpaceOnUse" x1="269.7867" y1="35.3899" x2="261.0403" y2="49.5478">
				<stop  offset="0" style="stop-color:#FFFFFF"/>
				<stop  offset="0.0043" style="stop-color:#FDFDFD"/>
				<stop  offset="0.2038" style="stop-color:#A4A4A4"/>
				<stop  offset="0.3793" style="stop-color:#5E5E5E"/>
				<stop  offset="0.5242" style="stop-color:#2B2B2B"/>
				<stop  offset="0.6333" style="stop-color:#0C0C0C"/>
				<stop  offset="0.6939" style="stop-color:#000000"/>
			</linearGradient>
			<path style="mask:url(#SVGID_8_);fill:url(#SVGID_9_);" d="M266.271,39.028c-4.002-1.266-7.865-3.701-11.216-6.356
				c2.881,4.507,6.186,9.599,8.403,12.768c1.239,1.772,3.962,3.843,7.554,3.843l0,0c5.21,0,10.127-4.372,13.97-12.366
				c-0.533,0.238-1.164,0.489-1.864,0.722C279.291,40.579,274.628,41.671,266.271,39.028z"/>
		</g>
	</mask>
	<linearGradient id="SVGID_10_" gradientUnits="userSpaceOnUse" x1="269.7867" y1="35.3899" x2="261.0403" y2="49.5478">
		<stop  offset="0" style="stop-color:#0089CF"/>
		<stop  offset="0.0668" style="stop-color:#0D91D3"/>
		<stop  offset="0.3545" style="stop-color:#3FB0E4"/>
		<stop  offset="0.5726" style="stop-color:#5EC4EF"/>
		<stop  offset="0.6939" style="stop-color:#6ACBF3"/>
	</linearGradient>
	<path style="fill:url(#SVGID_10_);" d="M266.271,39.028c-4.002-1.266-7.865-3.701-11.216-6.356
		c2.881,4.507,6.186,9.599,8.403,12.768c1.239,1.772,3.962,3.843,7.554,3.843l0,0c5.21,0,10.127-4.372,13.97-12.366
		c-0.533,0.238-1.164,0.489-1.864,0.722C279.291,40.579,274.628,41.671,266.271,39.028z"/>
</g>
<g id="Layer_6">
	<defs>
		<filter id="Adobe_OpacityMaskFilter_6_" filterUnits="userSpaceOnUse" x="255.055" y="32.672" width="29.927" height="16.611">
			<feFlood  style="flood-color:white;flood-opacity:1" result="back"/>
			<feBlend  in="SourceGraphic" in2="back" mode="normal"/>
		</filter>
	</defs>
	<mask maskUnits="userSpaceOnUse" x="255.055" y="32.672" width="29.927" height="16.611" id="SVGID_11_">
		<g style="filter:url(#Adobe_OpacityMaskFilter_6_);">
		</g>
	</mask>
	
		<radialGradient id="SVGID_12_" cx="-875.5716" cy="2692.2451" r="121.2238" gradientTransform="matrix(0.2957 0 0 0.2957 535.9525 -748.6805)" gradientUnits="userSpaceOnUse">
		<stop  offset="0" style="stop-color:#F2F2F2;stop-opacity:0.3"/>
		<stop  offset="0.0132" style="stop-color:#F2F2F2;stop-opacity:0.296"/>
		<stop  offset="0.4367" style="stop-color:#FCFCFC;stop-opacity:0.169"/>
		<stop  offset="1" style="stop-color:#FFFFFF;stop-opacity:0"/>
	</radialGradient>
	<path style="mask:url(#SVGID_11_);fill:url(#SVGID_12_);" d="M271.012,48.655L271.012,48.655c-3.592,0-6.314-2.07-7.554-3.843
		c-2.014-2.881-4.927-7.346-7.604-11.519c-0.269-0.206-0.537-0.412-0.799-0.621c2.881,4.507,6.186,9.599,8.403,12.768
		c1.239,1.772,3.962,3.843,7.554,3.843l0,0c5.21,0,10.127-4.372,13.97-12.366c-0.124,0.056-0.257,0.113-0.392,0.17
		C280.806,44.573,276.046,48.655,271.012,48.655z"/>
</g>
<g id="Layer_5">
	<linearGradient id="SVGID_13_" gradientUnits="userSpaceOnUse" x1="292.9725" y1="3.4236" x2="271.8414" y2="36.3095">
		<stop  offset="0" style="stop-color:#FFFFFF;stop-opacity:0.4"/>
		<stop  offset="0.8792" style="stop-color:#FFFFFF;stop-opacity:0.1"/>
	</linearGradient>
	<path style="fill:url(#SVGID_13_);" d="M274.992,30.009c4.588-5.463,9.153-15.734,20.856-24.91
		c1.746-1.369,3.254-2.351,4.561-3.035c-0.011-0.018-0.018-0.038-0.029-0.056c-0.515-0.851-1.739-1.286-3.64-1.291h-0.061
		c-9.827,0-12.344,5.437-14.366,9.806c-0.189,0.408-0.371,0.803-0.554,1.179c-3.89,8.02-8.109,16.711-10.242,21.102
		C272.949,31.931,274.164,30.995,274.992,30.009z"/>
</g>
<g id="Layer_4">
	
		<radialGradient id="SVGID_14_" cx="-847.3074" cy="2550.5996" r="108.0034" gradientTransform="matrix(0.2957 0 0 0.2957 535.9525 -748.6805)" gradientUnits="userSpaceOnUse">
		<stop  offset="0" style="stop-color:#F2F2F2;stop-opacity:0.3"/>
		<stop  offset="0.0132" style="stop-color:#F2F2F2;stop-opacity:0.296"/>
		<stop  offset="0.4367" style="stop-color:#FCFCFC;stop-opacity:0.169"/>
		<stop  offset="1" style="stop-color:#FFFFFF;stop-opacity:0"/>
	</radialGradient>
	<path style="fill:url(#SVGID_14_);" d="M282.121,12.218c0.182-0.376,0.364-0.771,0.553-1.179c2.023-4.369,4.539-9.806,14.367-9.806
		h0.061c1.538,0.004,2.627,0.295,3.262,0.855c0.015-0.008,0.03-0.017,0.045-0.024c-0.011-0.018-0.018-0.038-0.029-0.056
		c-0.515-0.851-1.739-1.286-3.64-1.291h-0.061c-9.827,0-12.344,5.437-14.366,9.806c-0.189,0.408-0.371,0.803-0.554,1.179
		c-3.89,8.02-8.109,16.711-10.242,21.102c0.309-0.188,0.605-0.38,0.892-0.573C274.659,27.594,278.53,19.622,282.121,12.218z"/>
</g>
<g id="Layer_3">
	<linearGradient id="SVGID_15_" gradientUnits="userSpaceOnUse" x1="253.2148" y1="13.6432" x2="234.7534" y2="39.4533">
		<stop  offset="0" style="stop-color:#FFFFFF;stop-opacity:0.5"/>
		<stop  offset="0.2017" style="stop-color:#FABBE0;stop-opacity:0.5"/>
		<stop  offset="0.4162" style="stop-color:#F479C2;stop-opacity:0.5"/>
		<stop  offset="0.6112" style="stop-color:#F045AA;stop-opacity:0.5"/>
		<stop  offset="0.7796" style="stop-color:#ED1F99;stop-opacity:0.5"/>
		<stop  offset="0.9148" style="stop-color:#EC088F;stop-opacity:0.5"/>
		<stop  offset="1" style="stop-color:#EB008B;stop-opacity:0.5"/>
	</linearGradient>
	<path style="fill:url(#SVGID_15_);" d="M237.417,37.321c2.141-7.081,4.186-11.101,6.717-14.638c0.974-1.36,5.967-5.23,12.716-4.852
		c-0.663-0.815-1.543-1.898-2.715-3.335c-1.292-1.585-2.644-2.389-4.019-2.389c-2.363,0-4.841,2.483-6.468,6.48
		c-1.955,4.805-10.204,23.667-10.28,23.843c-0.372,0.901-0.986,2.409-0.09,3.646C234.774,44.118,236.209,41.316,237.417,37.321z"/>
</g>
<g id="Layer_2">
	
		<radialGradient id="SVGID_16_" cx="-969.3839" cy="2574.2769" r="132.3331" gradientTransform="matrix(0.2957 0 0 0.2957 535.9525 -748.6805)" gradientUnits="userSpaceOnUse">
		<stop  offset="0" style="stop-color:#F2F2F2;stop-opacity:0.3"/>
		<stop  offset="0.0132" style="stop-color:#F2F2F2;stop-opacity:0.296"/>
		<stop  offset="0.4367" style="stop-color:#FCFCFC;stop-opacity:0.169"/>
		<stop  offset="1" style="stop-color:#FFFFFF;stop-opacity:0"/>
	</radialGradient>
	<path style="fill:url(#SVGID_16_);" d="M233.649,42.766c0.077-0.176,8.326-19.038,10.281-23.843
		c1.627-3.997,4.104-6.479,6.467-6.479c1.343,0,2.664,0.772,3.928,2.285c-0.064-0.078-0.124-0.154-0.19-0.234
		c-1.292-1.585-2.644-2.389-4.019-2.389c-2.363,0-4.841,2.483-6.468,6.48c-1.955,4.805-10.204,23.667-10.28,23.843
		c-0.372,0.901-0.986,2.409-0.09,3.646c0.016-0.022,0.032-0.044,0.048-0.066C232.795,44.861,233.317,43.571,233.649,42.766z"/>
</g>
</svg>
