<?xml version="1.0" encoding="utf-8"?>
<!-- Generated by IcoMoon.io -->
<!DOCTYPE svg PUBLIC "-//W3C//DTD SVG 1.1//EN" "http://www.w3.org/Graphics/SVG/1.1/DTD/svg11.dtd">
<svg version="1.1" xmlns="http://www.w3.org/2000/svg" xmlns:xlink="http://www.w3.org/1999/xlink" width="32" height="32" viewBox="0 0 32 32">
<path fill="#444444" d="M19.528 16.405c-0.016-1.637 1.335-2.422 1.395-2.461-0.759-1.111-1.942-1.263-2.364-1.281-1.007-0.102-1.964 0.593-2.475 0.593s-1.298-0.578-2.133-0.563c-1.097 0.016-2.109 0.638-2.674 1.62-1.14 1.978-0.292 4.908 0.819 6.512 0.543 0.785 1.19 1.667 2.040 1.636 0.819-0.033 1.128-0.53 2.117-0.53s1.268 0.53 2.134 0.513c0.881-0.016 1.439-0.8 1.978-1.588 0.623-0.911 0.88-1.793 0.895-1.838-0.020-0.009-1.717-0.659-1.734-2.614zM17.9 11.601c0.451-0.547 0.756-1.307 0.673-2.064-0.65 0.027-1.437 0.433-1.904 0.979-0.418 0.484-0.784 1.258-0.686 2 0.725 0.056 1.466-0.369 1.917-0.915z"></path>
</svg>
