<?xml version="1.0" encoding="utf-8"?>
<!-- Generated by IcoMoon.io -->
<!DOCTYPE svg PUBLIC "-//W3C//DTD SVG 1.1//EN" "http://www.w3.org/Graphics/SVG/1.1/DTD/svg11.dtd">
<svg version="1.1" xmlns="http://www.w3.org/2000/svg" xmlns:xlink="http://www.w3.org/1999/xlink" width="32" height="32" viewBox="0 0 32 32">
<path fill="#444444" d="M22.171 15.52h-0.796l-3.56-5.342c0.063-0.127 0.105-0.267 0.105-0.418 0-0.531-0.429-0.96-0.96-0.96s-0.96 0.429-0.96 0.96c0 0.531 0.429 0.96 0.959 0.96 0.020 0 0.036-0.010 0.055-0.011l3.207 4.811h-8.443l3.206-4.811c0.020 0.001 0.036 0.011 0.056 0.011 0.53 0 0.96-0.429 0.96-0.96s-0.43-0.96-0.96-0.96c-0.53 0-0.959 0.429-0.959 0.96 0 0.152 0.042 0.289 0.105 0.417l-3.56 5.343h-0.796c-1.132 0-1.764 0.879-1.407 1.953l1.785 4.326c0.357 1.074 1.576 1.401 2.707 1.401h6.17c1.131 0 2.349-0.327 2.708-1.401l1.783-4.326c0.359-1.073-0.276-1.953-1.406-1.953zM12.162 20.8c0 0.266-0.215 0.48-0.48 0.48s-0.48-0.215-0.48-0.48v-2.88c0-0.266 0.215-0.48 0.48-0.48s0.48 0.215 0.48 0.48v2.88zM15.040 20.8c0 0.266-0.215 0.48-0.48 0.48s-0.48-0.215-0.48-0.48v-2.88c0-0.266 0.215-0.48 0.48-0.48s0.48 0.215 0.48 0.48v2.88zM17.919 20.8c0 0.266-0.215 0.48-0.48 0.48s-0.48-0.215-0.48-0.48v-2.88c0-0.266 0.215-0.48 0.48-0.48s0.48 0.215 0.48 0.48v2.88zM20.798 20.8c0 0.266-0.215 0.48-0.48 0.48s-0.48-0.215-0.48-0.48v-2.88c0-0.266 0.214-0.48 0.48-0.48s0.48 0.215 0.48 0.48v2.88z"></path>
</svg>
