<?xml version="1.0" encoding="utf-8"?>
<!-- Generated by IcoMoon.io -->
<!DOCTYPE svg PUBLIC "-//W3C//DTD SVG 1.1//EN" "http://www.w3.org/Graphics/SVG/1.1/DTD/svg11.dtd">
<svg version="1.1" xmlns="http://www.w3.org/2000/svg" xmlns:xlink="http://www.w3.org/1999/xlink" width="32" height="32" viewBox="0 0 32 32">
<path fill="#444444" d="M19.63 10.96h-6.975c-0.732 0-1.455 0.712-1.455 1.445v6.975c0 0.733 0.723 1.42 1.455 1.42h6.975c0.732 0 1.411-0.687 1.411-1.42v-6.976c-0-0.732-0.678-1.444-1.411-1.444zM19.757 19.731c-0.167 0.166-0.384 0.25-0.601 0.25s-0.435-0.084-0.601-0.25l-4.201-4.2c-0.624 0.203-1.338 0.058-1.834-0.438-0.473-0.473-0.628-1.142-0.465-1.744l1.020 1.019 0.999-0.267 0.268-0.999-1.020-1.020c0.602-0.163 1.271-0.008 1.744 0.463 0.476 0.476 0.629 1.153 0.461 1.759l0.035 0.030 4.195 4.195c0.332 0.334 0.332 0.871 0 1.202z"></path>
<path fill="#444444" d="M19.229 18.94c-0.179 0-0.324 0.145-0.324 0.324s0.145 0.325 0.324 0.325c0.18 0 0.325-0.145 0.325-0.325s-0.145-0.324-0.325-0.324z"></path>
<path fill="#444444" d="M21.7 13.16h1.284c0.118 0 0.215-0.096 0.215-0.214s-0.097-0.215-0.215-0.215h-1.284c-0.118 0-0.215 0.096-0.215 0.215s0.096 0.214 0.215 0.214z"></path>
<path fill="#444444" d="M22.985 13.9h-1.284c-0.118 0-0.215 0.096-0.215 0.215s0.096 0.214 0.215 0.214h1.284c0.118 0 0.215-0.096 0.215-0.214s-0.096-0.215-0.215-0.215z"></path>
<path fill="#444444" d="M22.985 15.092h-1.284c-0.118 0-0.215 0.097-0.215 0.215s0.096 0.216 0.215 0.216h1.284c0.118 0 0.215-0.097 0.215-0.216s-0.096-0.215-0.215-0.215z"></path>
<path fill="#444444" d="M22.985 16.262h-1.284c-0.118 0-0.215 0.097-0.215 0.215s0.096 0.214 0.215 0.214h1.284c0.118 0 0.215-0.096 0.215-0.214s-0.096-0.215-0.215-0.215z"></path>
<path fill="#444444" d="M22.985 17.342h-1.284c-0.118 0-0.215 0.097-0.215 0.215s0.096 0.215 0.215 0.215h1.284c0.118 0 0.215-0.096 0.215-0.215s-0.096-0.215-0.215-0.215z"></path>
<path fill="#444444" d="M22.985 18.512h-1.284c-0.118 0-0.215 0.097-0.215 0.215s0.096 0.214 0.215 0.214h1.284c0.118 0 0.215-0.096 0.215-0.214s-0.096-0.215-0.215-0.215z"></path>
<path fill="#444444" d="M10.299 12.73h-1.285c-0.118 0-0.214 0.097-0.214 0.215s0.097 0.214 0.214 0.214h1.285c0.118 0 0.215-0.096 0.215-0.214s-0.097-0.215-0.215-0.215z"></path>
<path fill="#444444" d="M10.299 13.9h-1.285c-0.118 0-0.214 0.096-0.214 0.215s0.097 0.214 0.214 0.214h1.285c0.118 0 0.215-0.096 0.215-0.214s-0.097-0.215-0.215-0.215z"></path>
<path fill="#444444" d="M10.299 15.092h-1.285c-0.118 0-0.214 0.097-0.214 0.215s0.097 0.216 0.214 0.216h1.285c0.118 0 0.215-0.097 0.215-0.216s-0.097-0.215-0.215-0.215z"></path>
<path fill="#444444" d="M10.299 16.262h-1.285c-0.118 0-0.214 0.097-0.214 0.215s0.097 0.214 0.214 0.214h1.285c0.118 0 0.215-0.096 0.215-0.214s-0.097-0.215-0.215-0.215z"></path>
<path fill="#444444" d="M10.299 17.342h-1.285c-0.118 0-0.214 0.097-0.214 0.215s0.097 0.215 0.214 0.215h1.285c0.118 0 0.215-0.096 0.215-0.215s-0.097-0.215-0.215-0.215z"></path>
<path fill="#444444" d="M10.299 18.512h-1.285c-0.118 0-0.214 0.097-0.214 0.215s0.097 0.214 0.214 0.214h1.285c0.118 0 0.215-0.096 0.215-0.214s-0.097-0.215-0.215-0.215z"></path>
<path fill="#444444" d="M19.033 21.486c-0.118 0-0.215 0.097-0.215 0.215v1.285c0 0.118 0.097 0.215 0.215 0.215s0.215-0.097 0.215-0.215v-1.285c0-0.118-0.096-0.215-0.215-0.215z"></path>
<path fill="#444444" d="M17.863 21.486c-0.118 0-0.214 0.097-0.214 0.215v1.285c0 0.118 0.097 0.215 0.214 0.215s0.215-0.097 0.215-0.215v-1.285c0-0.118-0.096-0.215-0.215-0.215z"></path>
<path fill="#444444" d="M16.672 21.486c-0.119 0-0.215 0.097-0.215 0.215v1.285c0 0.118 0.096 0.215 0.215 0.215s0.214-0.097 0.214-0.215v-1.285c0-0.118-0.097-0.215-0.214-0.215z"></path>
<path fill="#444444" d="M15.501 21.486c-0.119 0-0.215 0.097-0.215 0.215v1.285c0 0.118 0.097 0.215 0.215 0.215s0.214-0.097 0.214-0.215v-1.285c0-0.118-0.096-0.215-0.214-0.215z"></path>
<path fill="#444444" d="M14.422 21.486c-0.119 0-0.215 0.097-0.215 0.215v1.285c0 0.118 0.097 0.215 0.215 0.215s0.214-0.097 0.214-0.215v-1.285c0-0.118-0.096-0.215-0.214-0.215z"></path>
<path fill="#444444" d="M13.252 21.486c-0.119 0-0.215 0.097-0.215 0.215v1.285c0 0.118 0.096 0.215 0.215 0.215s0.214-0.097 0.214-0.215v-1.285c0-0.118-0.096-0.215-0.214-0.215z"></path>
<path fill="#444444" d="M19.033 10.513c0.118 0 0.215-0.096 0.215-0.214v-1.285c0-0.118-0.097-0.214-0.215-0.214s-0.215 0.096-0.215 0.214v1.285c0 0.118 0.097 0.214 0.215 0.214z"></path>
<path fill="#444444" d="M17.863 10.513c0.118 0 0.215-0.096 0.215-0.214v-1.285c0-0.118-0.097-0.214-0.215-0.214s-0.214 0.096-0.214 0.214v1.285c0 0.118 0.096 0.214 0.214 0.214z"></path>
<path fill="#444444" d="M16.672 10.513c0.118 0 0.214-0.096 0.214-0.214v-1.285c0-0.118-0.096-0.214-0.214-0.214s-0.215 0.096-0.215 0.214v1.285c0 0.118 0.096 0.214 0.215 0.214z"></path>
<path fill="#444444" d="M15.501 10.513c0.118 0 0.214-0.096 0.214-0.214v-1.285c0-0.118-0.096-0.214-0.214-0.214s-0.215 0.096-0.215 0.214v1.285c0 0.118 0.096 0.214 0.215 0.214z"></path>
<path fill="#444444" d="M14.422 10.513c0.118 0 0.214-0.096 0.214-0.214v-1.285c0-0.118-0.096-0.214-0.214-0.214s-0.215 0.096-0.215 0.214v1.285c0 0.118 0.097 0.214 0.215 0.214z"></path>
<path fill="#444444" d="M13.252 10.513c0.118 0 0.214-0.096 0.214-0.214v-1.285c0-0.118-0.096-0.214-0.214-0.214s-0.215 0.096-0.215 0.214v1.285c0 0.118 0.096 0.214 0.215 0.214z"></path>
</svg>
