<?xml version="1.0" encoding="utf-8"?>
<!-- Generated by IcoMoon.io -->
<!DOCTYPE svg PUBLIC "-//W3C//DTD SVG 1.1//EN" "http://www.w3.org/Graphics/SVG/1.1/DTD/svg11.dtd">
<svg version="1.1" xmlns="http://www.w3.org/2000/svg" xmlns:xlink="http://www.w3.org/1999/xlink" width="32" height="32" viewBox="0 0 32 32">
<path fill="#444444" d="M10.6 11.050v-1.8c0-0.249 0.201-0.45 0.45-0.45s0.45 0.201 0.45 0.45v1.8c0 0.249-0.201 0.45-0.45 0.45s-0.45-0.201-0.45-0.45zM18.25 11.5c0.249 0 0.45-0.201 0.45-0.45v-1.8c0-0.249-0.201-0.45-0.45-0.45s-0.45 0.201-0.45 0.45v1.8c0 0.249 0.202 0.45 0.45 0.45zM23.2 19.6c0 1.988-1.612 3.6-3.6 3.6s-3.6-1.612-3.6-3.6c0-1.988 1.612-3.6 3.6-3.6s3.6 1.612 3.6 3.6zM22.3 19.6c0-1.489-1.211-2.7-2.7-2.7s-2.7 1.211-2.7 2.7c0 1.489 1.211 2.7 2.7 2.7s2.7-1.211 2.7-2.7zM12.4 14.2h-1.8v1.8h1.8v-1.8zM10.6 18.7h1.8v-1.8h-1.8v1.8zM13.3 16h1.8v-1.8h-1.8v1.8zM13.3 18.7h1.8v-1.8h-1.8v1.8zM9.7 19.51v-6.21h9.9v1.8h0.9v-3.51c0-0.547-0.436-0.99-0.975-0.99h-0.375v0.45c0 0.496-0.404 0.9-0.9 0.9s-0.9-0.404-0.9-0.9v-0.45h-5.399v0.45c0 0.496-0.404 0.9-0.9 0.9s-0.9-0.404-0.9-0.9v-0.45h-0.375c-0.539 0-0.975 0.443-0.975 0.99v7.921c0 0.545 0.436 0.99 0.975 0.99h5.325v-0.9h-5.325c-0.041 0-0.075-0.042-0.075-0.090zM17.8 14.2h-1.8v1.8h1.8v-1.8zM20.95 19.6h-1.35v-1.35c0-0.249-0.201-0.45-0.45-0.45s-0.45 0.201-0.45 0.45v1.8c0 0.249 0.201 0.45 0.45 0.45h1.8c0.249 0 0.45-0.201 0.45-0.45s-0.201-0.45-0.45-0.45z"></path>
</svg>
