<?xml version="1.0" encoding="utf-8"?>
<!-- Generated by IcoMoon.io -->
<!DOCTYPE svg PUBLIC "-//W3C//DTD SVG 1.1//EN" "http://www.w3.org/Graphics/SVG/1.1/DTD/svg11.dtd">
<svg version="1.1" xmlns="http://www.w3.org/2000/svg" xmlns:xlink="http://www.w3.org/1999/xlink" width="32" height="32" viewBox="0 0 32 32">
<path fill="#444444" d="M16.778 22.061c-0.253 0.225-0.546 0.339-0.879 0.339-0.344 0-0.644-0.111-0.9-0.334-0.257-0.222-0.385-0.534-0.385-0.934 0-0.355 0.124-0.654 0.372-0.897s0.553-0.363 0.913-0.363c0.355 0 0.654 0.121 0.897 0.363s0.363 0.541 0.363 0.897c0 0.394-0.127 0.704-0.381 0.93zM19.936 14.232c-0.195 0.361-0.426 0.672-0.693 0.934s-0.748 0.703-1.442 1.323c-0.191 0.175-0.345 0.329-0.461 0.461s-0.201 0.253-0.258 0.363c-0.057 0.11-0.1 0.221-0.131 0.331s-0.077 0.303-0.139 0.579c-0.107 0.586-0.443 0.879-1.006 0.879-0.293 0-0.539-0.095-0.74-0.287s-0.3-0.476-0.3-0.854c0-0.474 0.074-0.884 0.22-1.23s0.341-0.651 0.583-0.914c0.243-0.262 0.57-0.573 0.981-0.934 0.361-0.316 0.622-0.554 0.782-0.714s0.296-0.34 0.406-0.537c0.11-0.197 0.164-0.411 0.164-0.643 0-0.451-0.167-0.831-0.502-1.141s-0.769-0.465-1.298-0.465c-0.62 0-1.077 0.156-1.37 0.469s-0.541 0.773-0.744 1.382c-0.192 0.637-0.556 0.956-1.090 0.956-0.316 0-0.582-0.111-0.799-0.334s-0.325-0.464-0.325-0.723c0-0.535 0.172-1.078 0.516-1.627s0.846-1.005 1.506-1.365c0.66-0.361 1.429-0.541 2.308-0.541 0.817 0 1.539 0.151 2.164 0.453s1.109 0.711 1.451 1.23c0.341 0.519 0.511 1.082 0.511 1.691 0.001 0.478-0.097 0.897-0.291 1.258z"></path>
</svg>
