<?xml version="1.0" encoding="utf-8"?>
<!-- Generated by IcoMoon.io -->
<!DOCTYPE svg PUBLIC "-//W3C//DTD SVG 1.1//EN" "http://www.w3.org/Graphics/SVG/1.1/DTD/svg11.dtd">
<svg version="1.1" xmlns="http://www.w3.org/2000/svg" xmlns:xlink="http://www.w3.org/1999/xlink" width="32" height="32" viewBox="0 0 32 32">
<path fill="#444444" d="M13.438 21.157h5.123v1.305h-5.123v-1.305zM23.367 20.655h-14.735v-11.118h14.735v11.118zM21.851 19.55c0-0.263-0.213-0.477-0.476-0.477s-0.477 0.214-0.477 0.477 0.214 0.477 0.477 0.477c0.264-0 0.476-0.214 0.476-0.477zM22.168 10.475h-12.335v7.889h12.334v-7.889zM12.644 16.539c-1.087-1.088-1.087-2.851 0-3.94s2.852-1.088 3.94 0l-1.97 1.97 1.971 1.97c-1.088 1.089-2.852 1.089-3.94 0zM13.914 12.968c0 0.215 0.175 0.39 0.391 0.39s0.39-0.175 0.39-0.39c0-0.215-0.175-0.39-0.39-0.39s-0.39 0.175-0.391 0.39zM17.102 15.091c0.293 0 0.531-0.237 0.531-0.531s-0.237-0.531-0.531-0.531c-0.293 0-0.531 0.237-0.531 0.531s0.238 0.531 0.531 0.531zM19.474 15.091c0.293 0 0.532-0.238 0.532-0.532s-0.238-0.531-0.532-0.531c-0.293 0-0.532 0.238-0.532 0.531s0.238 0.532 0.532 0.532z"></path>
</svg>
