<?xml version="1.0" encoding="utf-8"?>
<!-- Generated by IcoMoon.io -->
<!DOCTYPE svg PUBLIC "-//W3C//DTD SVG 1.1//EN" "http://www.w3.org/Graphics/SVG/1.1/DTD/svg11.dtd">
<svg version="1.1" xmlns="http://www.w3.org/2000/svg" xmlns:xlink="http://www.w3.org/1999/xlink" width="32" height="32" viewBox="0 0 32 32">
<path fill="#444444" d="M21.947 12.898c-1.913-3.145-4.795-0.957-4.795-0.957-0.187 0.142-0.532 0.258-0.765 0.259h-0.772c-0.235 0.001-0.579-0.116-0.765-0.257 0 0-2.882-2.188-4.795 0.956s-1.142 6.568-1.142 6.568c0.135 0.838 0.58 1.397 1.42 1.327 0.838-0.070 2.655-2.258 2.655-2.258 0.15-0.18 0.465-0.327 0.699-0.327l4.627-0.001c0.233 0 0.548 0.147 0.698 0.327 0 0 1.818 2.188 2.657 2.257 0.839 0.071 1.285-0.49 1.419-1.327 0 0 0.772-3.424-1.141-6.568zM14.261 15.458h-0.992v0.957c0 0-0.21 0.161-0.535 0.157-0.325-0.005-0.472-0.175-0.472-0.175v-0.939h-0.937c0 0-0.116-0.12-0.148-0.436s0.129-0.572 0.129-0.572h0.993v-0.993c0 0 0.204-0.109 0.498-0.101 0.294 0.009 0.509 0.12 0.509 0.12l-0.004 0.974h0.938c0 0 0.164 0.21 0.177 0.464s-0.154 0.543-0.154 0.543zM18.812 16.548c-0.435 0-0.785-0.351-0.785-0.786s0.35-0.786 0.785-0.786c0.432 0 0.786 0.351 0.786 0.786s-0.353 0.786-0.786 0.786zM18.812 14.386c-0.435 0-0.785-0.351-0.785-0.786s0.35-0.786 0.785-0.786c0.432 0 0.786 0.351 0.786 0.786s-0.353 0.786-0.786 0.786zM20.768 15.547c-0.435 0-0.785-0.351-0.785-0.786s0.35-0.786 0.785-0.786c0.432 0 0.786 0.351 0.786 0.786s-0.353 0.786-0.786 0.786z"></path>
</svg>
