<?xml version="1.0" encoding="utf-8"?>
<!-- Generated by IcoMoon.io -->
<!DOCTYPE svg PUBLIC "-//W3C//DTD SVG 1.1//EN" "http://www.w3.org/Graphics/SVG/1.1/DTD/svg11.dtd">
<svg version="1.1" xmlns="http://www.w3.org/2000/svg" xmlns:xlink="http://www.w3.org/1999/xlink" width="32" height="32" viewBox="0 0 32 32">
<path fill="#444444" d="M16.031 9.567c-3.452 0-6.367 2.809-6.367 6.134 0 1.875 0.931 4.114 2.372 5.704l0.041 0.045 0.060-0.012c0.015-0.003 0.345-0.072 0.483-0.325 0.338 0.277 0.638 0.304 0.954 0.191 0.14 0.27 0.195 0.564-0.181 0.671-0.354 0.1-0.828-0.030-1.177-0.083-0.582-0.088-1.816-0.114-2.404-0.092-0.277 0.010-0.278 0.441 0 0.431 0.71-0.027 2.044 0.044 2.747 0.144 0.351 0.050 0.8 0.119 1.137-0.044 0.582-0.283 0.484-0.765 0.25-1.212 0.176-0.107 0.363-0.243 0.566-0.388-0.563-0.248-1.301-1.355-1.805-2.32-0.356-0.683-1.054-2.132-0.975-2.863-0.436 0.299-0.774 0.559-0.958 0.901-0.051-0.322-0.078-0.638-0.078-0.945 0-2.635 2.759-4.405 5.337-4.405 3.192 0 5.336 2.278 5.336 4.405 0 0.304-0.025 0.616-0.072 0.932-0.185-0.335-0.521-0.593-0.951-0.888 0.079 0.732-0.619 2.18-0.975 2.863-0.504 0.965-1.241 2.072-1.805 2.32 0.774 0.555 1.292 0.946 1.981 0.304 0.141 0.219 0.397 0.333 0.41 0.339l0.071 0.031 0.052-0.058c1.409-1.585 2.32-3.801 2.32-5.646 0.001-3.325-2.915-6.134-6.366-6.134z"></path>
<path fill="#444444" d="M12.137 15.327c-0.027 0-0.051 0.006-0.073 0.016-0.008 0.004-0.017 0.006-0.024 0.011-0.313 0.205 0.108 1.521 0.857 2.957 0.684 1.31 1.46 2.256 1.829 2.256 0.007 0 0.013-0.002 0.020-0.003 0.027-0.003 0.053-0.010 0.075-0.024 0.024-0.016 0.043-0.041 0.060-0.069 0.001-0.002 0.002-0.004 0.003-0.006 0.189-0.351-0.164-1.578-0.852-2.896-0.683-1.309-1.515-2.243-1.894-2.243z"></path>
<path fill="#444444" d="M19.178 18.311c0.749-1.436 1.171-2.752 0.857-2.957-0.007-0.005-0.016-0.007-0.024-0.011-0.022-0.010-0.046-0.016-0.073-0.016-0.379 0-1.211 0.933-1.894 2.243-0.688 1.318-1.041 2.545-0.852 2.896 0.001 0.002 0.002 0.004 0.003 0.006 0.016 0.029 0.035 0.054 0.060 0.069 0.022 0.015 0.049 0.022 0.076 0.024 0.006 0.001 0.012 0.002 0.018 0.002 0.369 0 1.145-0.946 1.829-2.256z"></path>
</svg>
