<?xml version="1.0" encoding="utf-8"?>
<!-- Generated by IcoMoon.io -->
<!DOCTYPE svg PUBLIC "-//W3C//DTD SVG 1.1//EN" "http://www.w3.org/Graphics/SVG/1.1/DTD/svg11.dtd">
<svg version="1.1" xmlns="http://www.w3.org/2000/svg" xmlns:xlink="http://www.w3.org/1999/xlink" width="32" height="32" viewBox="0 0 32 32">
<path fill="#444444" d="M13.572 22.4c-0.853-1.775-0.399-2.792 0.257-3.751 0.718-1.049 0.903-2.088 0.903-2.088s0.564 0.734 0.339 1.881c0.997-1.11 1.185-2.878 1.035-3.556 2.254 1.575 3.217 4.986 1.919 7.514 6.905-3.907 1.717-9.752 0.814-10.411 0.301 0.659 0.358 1.773-0.25 2.314-1.029-3.903-3.574-4.703-3.574-4.703 0.301 2.013-1.091 4.214-2.434 5.859-0.047-0.803-0.097-1.356-0.519-2.125-0.095 1.458-1.209 2.647-1.511 4.108-0.409 1.979 0.306 3.427 3.021 4.958z"></path>
</svg>
