<?xml version="1.0" encoding="utf-8"?>
<!-- Generated by IcoMoon.io -->
<!DOCTYPE svg PUBLIC "-//W3C//DTD SVG 1.1//EN" "http://www.w3.org/Graphics/SVG/1.1/DTD/svg11.dtd">
<svg version="1.1" xmlns="http://www.w3.org/2000/svg" xmlns:xlink="http://www.w3.org/1999/xlink" width="32" height="32" viewBox="0 0 32 32">
<path fill="#444444" d="M16.69 16.703v-2.28c0-0.242 0.187-0.51 0.382-0.652 0.468-0.338 0.772-0.888 0.772-1.509 0-1.029-0.834-1.863-1.863-1.863s-1.863 0.834-1.863 1.863c0 0.621 0.305 1.171 0.772 1.509 0.196 0.142 0.383 0.41 0.383 0.652v2.28c0 0.243-0.196 0.439-0.439 0.439h-1.525c-0.243 0-0.439 0.196-0.439 0.438v1.284c0 0.243 0.196 0.438 0.439 0.438h5.343c0.243 0 0.439-0.196 0.439-0.438v-1.284c0-0.242-0.196-0.438-0.439-0.438h-1.524c-0.243 0-0.439-0.196-0.439-0.439z"></path>
<path fill="#444444" d="M19.725 18.066v1.283c0 0.243-0.196 0.439-0.439 0.439h-6.572c-0.243 0-0.439-0.196-0.439-0.439v-1.283c0-0.243-0.196-0.439-0.439-0.439h-0.314c-0.243 0-0.439 0.196-0.439 0.439v2.661c0 0.243 0.196 0.439 0.439 0.439h0.016c0.242 0 0.439 0.098 0.439 0.217s0.196 0.217 0.438 0.217h0.712c0.243 0 0.439-0.097 0.439-0.217s0.196-0.217 0.438-0.217h3.853c0.242 0 0.439 0.098 0.439 0.217s0.196 0.217 0.439 0.217h0.711c0.242 0 0.439-0.097 0.439-0.217s0.196-0.217 0.439-0.217h0.153c0.242 0 0.438-0.196 0.438-0.439v-2.661c0-0.243-0.196-0.439-0.438-0.439h-0.314c-0.242 0-0.439 0.197-0.439 0.439z"></path>
</svg>
