<?xml version="1.0" encoding="utf-8"?>
<!-- Generated by IcoMoon.io -->
<!DOCTYPE svg PUBLIC "-//W3C//DTD SVG 1.1//EN" "http://www.w3.org/Graphics/SVG/1.1/DTD/svg11.dtd">
<svg version="1.1" xmlns="http://www.w3.org/2000/svg" xmlns:xlink="http://www.w3.org/1999/xlink" width="32" height="32" viewBox="0 0 32 32">
<path fill="#444444" d="M15.677 22.978c0.075 0.084 0.146 0.138 0.215 0.176l0.004 0.001 0.139 0.044 0.143-0.045c0.068-0.038 0.14-0.092 0.214-0.176 0 0 4.117-4.556 4.53-8.505 0.025-0.204 0.042-0.411 0.042-0.62 0-2.792-2.223-5.054-4.965-5.054s-4.965 2.262-4.965 5.054c0 0.213 0.017 0.422 0.042 0.628 0.425 3.946 4.601 8.496 4.601 8.496zM16 10.603c1.761 0 3.194 1.459 3.194 3.251s-1.433 3.25-3.194 3.25c-1.76 0-3.194-1.459-3.194-3.25s1.434-3.251 3.194-3.251z"></path>
</svg>
