<?xml version="1.0" encoding="utf-8"?>
<!-- Generated by IcoMoon.io -->
<!DOCTYPE svg PUBLIC "-//W3C//DTD SVG 1.1//EN" "http://www.w3.org/Graphics/SVG/1.1/DTD/svg11.dtd">
<svg version="1.1" xmlns="http://www.w3.org/2000/svg" xmlns:xlink="http://www.w3.org/1999/xlink" width="32" height="32" viewBox="0 0 32 32">
<path fill="#444444" d="M18.428 18.637l-1.33-4.091c-0.076-0.238-0.218-0.432-0.425-0.58s-0.434-0.223-0.682-0.223h-5.279c-0.248 0-0.475 0.074-0.682 0.223s-0.349 0.342-0.425 0.58l-1.33 4.091c-0.072 0.225-0.108 0.394-0.108 0.506v2.16c0 0.297 0.106 0.551 0.317 0.763s0.466 0.317 0.763 0.317h8.209c0.297 0 0.551-0.106 0.763-0.317s0.317-0.466 0.317-0.763v-2.16c0-0.112-0.036-0.281-0.108-0.506zM10.429 14.81c0.018-0.059 0.054-0.107 0.108-0.145s0.113-0.057 0.175-0.057h5.279c0.063 0 0.122 0.019 0.176 0.057s0.090 0.087 0.108 0.145l1.060 3.254h-7.965l1.060-3.254zM17.672 21.304c0 0.059-0.021 0.109-0.064 0.152s-0.093 0.064-0.152 0.064h-8.209c-0.059 0-0.109-0.021-0.152-0.064s-0.064-0.093-0.064-0.152v-2.16c0-0.059 0.021-0.109 0.064-0.152s0.093-0.064 0.152-0.064h8.209c0.059 0 0.109 0.021 0.152 0.064s0.064 0.093 0.064 0.152v2.16z"></path>
<path fill="#444444" d="M14.648 19.684c-0.148 0-0.276 0.053-0.381 0.159s-0.159 0.233-0.159 0.381c0 0.148 0.053 0.276 0.159 0.381s0.233 0.159 0.381 0.159 0.276-0.053 0.381-0.159c0.106-0.106 0.159-0.233 0.159-0.381s-0.053-0.276-0.159-0.381c-0.106-0.106-0.233-0.159-0.381-0.159z"></path>
<path fill="#444444" d="M16.376 19.684c-0.148 0-0.276 0.053-0.381 0.159s-0.159 0.233-0.159 0.381c0 0.148 0.053 0.276 0.159 0.381s0.233 0.159 0.381 0.159 0.276-0.053 0.381-0.159c0.106-0.106 0.159-0.233 0.159-0.381s-0.053-0.276-0.159-0.381c-0.106-0.106-0.233-0.159-0.381-0.159z"></path>
<path fill="#444444" d="M23.275 9.65h-6.101c-0.055 0-0.107 0.084-0.143 0.125l-1.344 1.452c-0.030 0.035-0.157 0.109-0.157 0.155v2.108h0.461c0.357 0 0.684-0.082 0.98 0.131 0.298 0.214 0.501 0.388 0.612 0.732l1.177 4.053c0.090 0.282-0.030 0.454-0.030 0.625v1.18h4.546c0.314 0 0.254-0.327 0.254-0.64v-9.231c-0-0.314 0.059-0.689-0.255-0.689zM17.154 12.306h-0.541v-0.541h0.541v0.541zM17.77 12.21h-0.64v-1.6h0.64v1.6zM18.73 12.21h-0.64v-1.6h0.64v1.6zM19.69 12.21h-0.32v-1.6h0.32v1.6zM20.97 12.21h-0.64v-1.6h0.64v1.6zM21.61 12.21h-0.32v-1.6h0.32v1.6zM22.89 12.21h-0.64v-1.6h0.64v1.6z"></path>
</svg>
