<?xml version="1.0" encoding="utf-8"?>
<!-- Generated by IcoMoon.io -->
<!DOCTYPE svg PUBLIC "-//W3C//DTD SVG 1.1//EN" "http://www.w3.org/Graphics/SVG/1.1/DTD/svg11.dtd">
<svg version="1.1" xmlns="http://www.w3.org/2000/svg" xmlns:xlink="http://www.w3.org/1999/xlink" width="32" height="32" viewBox="0 0 32 32">
<path fill="#444444" d="M11.275 16.691c-1.121 1.006-1.542 3.024-0.536 4.145l0.78 0.87c1.005 1.12 3.057 0.919 4.178-0.087l2.96-2.657-4.425-4.925-2.957 2.654zM17.265 15.482c-0.017-0.019-0.5-0.611 0.053-1.107l0.616-0.554c0 0 0.636-0.44 1.091 0.068l0.572-0.512-0.244-0.272c-1.004-1.122-2.729-1.213-3.85-0.208l-1.047 0.94 2.068 2.305 0.743-0.661zM19.231 15.306l-0.579 0.52c0 0-0.63 0.5-1.117-0.042v0.004l-0.737 0.663 2.077 2.316 1.049-0.941c1.12-1.006 1.213-2.73 0.208-3.85l-0.244-0.271-0.581 0.52c0-0.001 0.468 0.594-0.076 1.081zM21.798 9.784c-0.797-0.365-1.519-0.324-1.931 0.111-0.427 0.445-0.284 1.055 0.361 1.584 0.81 0.669 0.663 1.069 0.523 1.272 0 0-0.18 0.329-0.772 0.516-0.078 0.018-0.36 0.045-0.387 0.121l0.295 0.317c0.039-0.012 0.734-0.312 1.13-0.889 0.342-0.496 0.17-1.017-0.528-1.589-0.631-0.516-0.645-1.030-0.455-1.23 0.171-0.178 0.715-0.312 1.524 0.058 0.052 0.022 0.148-0.018 0.214-0.093 0.064-0.073 0.076-0.154 0.025-0.176zM18.304 14.183l-0.604 0.543c-0.184 0.164-0.199 0.447-0.034 0.631s0.447 0.198 0.63 0.035l0.605-0.543c0.183-0.164 0.198-0.447 0.033-0.63-0.164-0.185-0.446-0.201-0.63-0.035z"></path>
</svg>
