<?xml version="1.0" encoding="utf-8"?>
<!-- Generated by IcoMoon.io -->
<!DOCTYPE svg PUBLIC "-//W3C//DTD SVG 1.1//EN" "http://www.w3.org/Graphics/SVG/1.1/DTD/svg11.dtd">
<svg version="1.1" xmlns="http://www.w3.org/2000/svg" xmlns:xlink="http://www.w3.org/1999/xlink" width="32" height="32" viewBox="0 0 32 32">
<path fill="#444444" d="M10.448 8.8v11.165h3.493l2.059 3.235 2.058-3.235h3.494v-11.165h-11.103zM19.42 17.683v0.001l-0.636 0.416c-0.408 0.279-2.146 0.588-4.494-2.302-2.264-2.785-1.603-4.318-1.295-4.671l0.529-0.547c0.124-0.104 0.311-0.090 0.417 0.037l1.375 1.653c0.101 0.121 0.096 0.309-0.037 0.421v0.001l-0.616 0.441c-0.244 0.24-0.035 0.622 0.212 0.991l1.172 1.406c0.546 0.536 0.844 0.783 1.107 0.608l0.512-0.568c0.126-0.105 0.311-0.091 0.417 0.037l1.375 1.651v0.002c0.1 0.121 0.095 0.309-0.037 0.421z"></path>
</svg>
