<?xml version="1.0" encoding="utf-8"?>
<!-- Generated by IcoMoon.io -->
<!DOCTYPE svg PUBLIC "-//W3C//DTD SVG 1.1//EN" "http://www.w3.org/Graphics/SVG/1.1/DTD/svg11.dtd">
<svg version="1.1" xmlns="http://www.w3.org/2000/svg" xmlns:xlink="http://www.w3.org/1999/xlink" width="32" height="32" viewBox="0 0 32 32">
<path fill="#444444" d="M18.971 13.738h-2.781c-0.858 0-1.278 0.529-1.278 1.217v2.091c0 0.426-0.202 0.732-0.628 0.732h-2.432c-0.018 0-0.032 0.014-0.032 0.032v0.42c0 0.018 0.014 0.032 0.032 0.032h2.753c0.858 0 1.278-0.527 1.278-1.215v-2.092c0-0.426 0.202-0.733 0.628-0.733h2.46c0.018 0 0.032-0.014 0.032-0.031v-0.42c0-0.018-0.014-0.032-0.031-0.032z"></path>
<path fill="#444444" d="M10.784 13.739l-5.349-0c-0.018 0-0.031 0.014-0.031 0.032v0.42c0 0.017 0.014 0.032 0.032 0.032h5.028c0.426 0 0.628 0.307 0.628 0.733s-0.202 0.732-0.628 0.732h-3.977c-0.618 0-1.083 0.519-1.083 1.207v1.336c0 0.017 0.014 0.032 0.032 0.032h0.907c0.017 0 0.031-0.014 0.031-0.032v-1.336c0-0.426 0.246-0.724 0.598-0.724h3.812c0.858 0 1.278-0.527 1.278-1.215s-0.42-1.217-1.278-1.217z"></path>
<path fill="#444444" d="M26.199 15.944c-0.014-0.014-0.014-0.037-0-0.050 0.266-0.22 0.398-0.554 0.398-0.938 0-0.688-0.42-1.217-1.278-1.217l-5.349-0c-0.017 0-0.032 0.014-0.032 0.032v0.42c0 0.018 0.015 0.032 0.032 0.032h5.028c0.426 0 0.628 0.307 0.628 0.733s-0.202 0.732-0.628 0.732h-0.004l-0.001-0-5.023 0c-0.017 0-0.032 0.014-0.032 0.032v0.42c0 0.017 0.015 0.031 0.032 0.031h5.028c0.555 0.004 0.628 0.544 0.628 0.82l0.001 0.055c0 0.426-0.202 0.733-0.628 0.733h-5.028c-0.017 0-0.032 0.014-0.032 0.031v0.42c0 0.018 0.015 0.032 0.032 0.032l5.349-0c0.858 0 1.278-0.57 1.278-1.217v-0.054c0-0.412-0.133-0.805-0.398-1.046z"></path>
</svg>
