<?xml version="1.0" encoding="utf-8"?>
<!-- Generated by IcoMoon.io -->
<!DOCTYPE svg PUBLIC "-//W3C//DTD SVG 1.1//EN" "http://www.w3.org/Graphics/SVG/1.1/DTD/svg11.dtd">
<svg version="1.1" xmlns="http://www.w3.org/2000/svg" xmlns:xlink="http://www.w3.org/1999/xlink" width="32" height="32" viewBox="0 0 32 32">
<path fill="#444444" d="M22.074 19.784l-2.941-2.497c-0.070-0.058-0.156-0.090-0.243-0.090-0.122 0-0.237 0.061-0.309 0.164-0.335 0.475-0.745 0.886-1.22 1.221-0.088 0.062-0.147 0.157-0.161 0.262s0.017 0.207 0.086 0.29l2.497 2.945c0.169 0.204 0.415 0.321 0.673 0.321 0.232 0 0.453-0.093 0.622-0.263l1.055-1.056c0.18-0.18 0.273-0.415 0.262-0.661s-0.125-0.473-0.321-0.636zM18.95 14.276c0-2.579-2.096-4.676-4.673-4.676s-4.673 2.098-4.673 4.676c0 2.579 2.096 4.676 4.673 4.676 1.248 0 2.421-0.486 3.304-1.37s1.368-2.058 1.368-3.306zM16.51 16.51c-0.598 0.598-1.39 0.927-2.232 0.927-1.741 0-3.158-1.418-3.158-3.16s1.417-3.161 3.158-3.161 3.158 1.418 3.158 3.161c0 0.843-0.329 1.636-0.926 2.234zM14.278 11.563c-1.495 0-2.711 1.217-2.711 2.714 0 0.364 0.295 0.66 0.659 0.66 0.365 0 0.66-0.296 0.66-0.66 0-0.769 0.625-1.394 1.393-1.394 0.364 0 0.659-0.296 0.659-0.66s-0.295-0.66-0.659-0.66z"></path>
</svg>
