<?xml version="1.0" encoding="utf-8"?>
<!-- Generated by IcoMoon.io -->
<!DOCTYPE svg PUBLIC "-//W3C//DTD SVG 1.1//EN" "http://www.w3.org/Graphics/SVG/1.1/DTD/svg11.dtd">
<svg version="1.1" xmlns="http://www.w3.org/2000/svg" xmlns:xlink="http://www.w3.org/1999/xlink" width="32" height="32" viewBox="0 0 32 32">
<path fill="#444444" d="M23.804 16.978v1.2c0 0.718-0.579 1.302-1.291 1.302h-1.141c-0.292 0-0.529-0.24-0.529-0.533v-2.736c0-0.272 0.204-0.495 0.466-0.527-0.58-2.414-2.736-4.216-5.308-4.216s-4.727 1.802-5.307 4.216c0.262 0.032 0.466 0.254 0.466 0.527v2.736c0 0.294-0.238 0.533-0.529 0.533h-1.142c-0.712 0-1.291-0.584-1.291-1.302v-1.2c0-0.717 0.579-1.301 1.291-1.301h0.118c0.601-3.006 3.239-5.276 6.396-5.276s5.794 2.271 6.395 5.276h0.119c0.71-0.001 1.289 0.583 1.289 1.301zM17.596 19.51c-0.182 0.289-0.55 0.489-0.979 0.489-0.609 0-1.102-0.398-1.102-0.888s0.493-0.889 1.102-0.889c0.428 0 0.797 0.2 0.979 0.489h2.652c0.216-0.535 0.336-1.119 0.336-1.732 0-2.553-2.052-4.622-4.584-4.622s-4.585 2.069-4.585 4.622c0 2.552 2.052 4.622 4.585 4.622 1.603 0 3.013-0.831 3.832-2.088l-2.236-0.002z"></path>
</svg>
