<?xml version="1.0" encoding="utf-8"?>
<!-- Generated by IcoMoon.io -->
<!DOCTYPE svg PUBLIC "-//W3C//DTD SVG 1.1//EN" "http://www.w3.org/Graphics/SVG/1.1/DTD/svg11.dtd">
<svg version="1.1" xmlns="http://www.w3.org/2000/svg" xmlns:xlink="http://www.w3.org/1999/xlink" width="32" height="32" viewBox="0 0 32 32">
<path fill="#444444" d="M16 8.8c-3.97 0-7.2 3.23-7.2 7.2s3.23 7.2 7.2 7.2c3.97 0 7.2-3.23 7.2-7.2s-3.23-7.2-7.2-7.2zM16 22.027c-3.323 0-6.026-2.704-6.026-6.027s2.703-6.027 6.026-6.027c3.324 0 6.027 2.704 6.027 6.027s-2.704 6.027-6.027 6.027zM19.72 14.148c0.12 0.174 0.076 0.413-0.098 0.534l-3.476 2.401c-0.066 0.045-0.142 0.068-0.218 0.068-0.061 0-0.122-0.014-0.178-0.044-0.126-0.066-0.206-0.197-0.206-0.34v-5.139c0-0.212 0.172-0.384 0.384-0.384s0.384 0.172 0.384 0.384v4.408l2.874-1.986c0.175-0.119 0.414-0.076 0.534 0.098z"></path>
</svg>
