<?xml version="1.0" encoding="utf-8"?>
<!-- Generated by IcoMoon.io -->
<!DOCTYPE svg PUBLIC "-//W3C//DTD SVG 1.1//EN" "http://www.w3.org/Graphics/SVG/1.1/DTD/svg11.dtd">
<svg version="1.1" xmlns="http://www.w3.org/2000/svg" xmlns:xlink="http://www.w3.org/1999/xlink" width="32" height="32" viewBox="0 0 32 32">
<path fill="#444444" d="M13.611 10.143c-0.004 0.004-0.008 0.007-0.012 0.011 0.024-0.026 0.060-0.054 0.083-0.069 0.675-0.438 1.454-0.673 2.318-0.673 0.809 0 1.566 0.223 2.213 0.612 0.047 0.028 0.175 0.116 0.241 0.195v0c-0.624-0.688-2.458 0.788-2.458 0.788-0.634-0.489-1.218-0.822-1.652-0.94-0.363-0.1-0.614-0.016-0.733 0.076zM19.161 10.794c-0.019-0.021-0.040-0.041-0.059-0.062-0.158-0.173-0.352-0.215-0.526-0.204-0.159 0.050-0.894 0.315-1.8 1.17 0 0 1.020 0.992 1.644 2.005s0.997 1.811 0.768 2.916c0.696-0.765 1.121-1.782 1.121-2.898-0-1.13-0.435-2.158-1.148-2.927zM17.604 14.136c-0.276-0.31-0.688-0.755-1.232-1.296-0.119-0.118-0.244-0.242-0.377-0.369 0 0-0.198 0.198-0.457 0.46v-0c-0.331 0.334-0.76 0.77-0.998 1.025-0.424 0.452-1.638 1.873-1.707 2.67 0 0-0.27-0.632 0.323-2.089 0.388-0.953 1.558-2.383 2.047-2.85 0 0-0.447-0.492-1.007-0.831l-0.003-0.001c0 0-0.006-0.005-0.017-0.012-0.269-0.161-0.564-0.285-0.847-0.301-0.29 0.020-0.473 0.232-0.473 0.232-0.723 0.771-1.165 1.807-1.165 2.947 0 2.38 1.929 4.308 4.308 4.308 1.263 0 2.399-0.545 3.187-1.41-0-0.001-0.091-0.569-0.67-1.384-0.136-0.191-0.634-0.787-0.913-1.1z"></path>
<path fill="#444444" d="M8.874 22.52h-0.466l-0.012-0.018-0.929-1.37-0.956 1.388h-0.442l0.044-0.063 1.127-1.637-1.103-1.599h0.455l0.012 0.019 0.864 1.296 0.906-1.315h0.437l-0.045 0.064-1.102 1.544 1.165 1.628z"></path>
<path fill="#444444" d="M10.391 22.52h-1.383v-1.546h-0.672l0.232-0.339h0.439v-1.415h1.402c0.274 0 0.513 0.058 0.71 0.173 0.21 0.123 0.319 0.343 0.325 0.655 0 0.18-0.054 0.342-0.16 0.481-0.079 0.107-0.179 0.187-0.299 0.239 0.378 0.108 0.574 0.374 0.582 0.795 0 0.083-0.010 0.174-0.031 0.279-0.026 0.11-0.080 0.215-0.159 0.315-0.077 0.101-0.197 0.188-0.356 0.257-0.159 0.071-0.371 0.107-0.63 0.107zM9.391 22.178l1.040 0.001c0.209 0 0.387-0.044 0.529-0.133 0.149-0.091 0.223-0.252 0.226-0.491-0.008-0.388-0.268-0.579-0.796-0.581l-0.999 0.001v1.204zM9.391 20.632h0.997c0.23-0.002 0.404-0.054 0.514-0.152 0.107-0.096 0.159-0.212 0.159-0.355-0.002-0.38-0.223-0.564-0.674-0.564h-0.997v1.071z"></path>
<path fill="#444444" d="M13.332 22.588h-0.001c-0.509-0.009-0.897-0.189-1.153-0.533-0.256-0.327-0.386-0.727-0.386-1.189 0-0.465 0.13-0.869 0.387-1.201 0.255-0.337 0.643-0.513 1.153-0.522 0.511 0.009 0.899 0.184 1.155 0.522 0.253 0.332 0.382 0.736 0.382 1.201 0 0.462-0.129 0.862-0.382 1.19-0.256 0.344-0.644 0.524-1.153 0.532zM13.331 19.483c-0.399 0.009-0.695 0.152-0.879 0.426-0.188 0.276-0.281 0.597-0.278 0.956-0.003 0.359 0.090 0.679 0.278 0.951 0.184 0.281 0.48 0.426 0.88 0.431 0.397-0.006 0.692-0.151 0.878-0.43 0.182-0.272 0.274-0.592 0.274-0.952s-0.092-0.681-0.274-0.956c-0.186-0.274-0.481-0.418-0.879-0.426z"></path>
<path fill="#444444" d="M17.65 22.52h-0.466l-0.012-0.018-0.929-1.37-0.956 1.388h-0.442l0.043-0.063 1.127-1.637-1.103-1.599h0.455l0.012 0.019 0.864 1.296 0.906-1.315h0.437l-0.045 0.064-1.102 1.544 1.165 1.628z"></path>
<path fill="#444444" d="M18.706 21.449c-0.008 0.268 0.062 0.481 0.209 0.639 0.146 0.165 0.353 0.248 0.623 0.248 0.228 0 0.426-0.066 0.594-0.196 0.167-0.125 0.253-0.307 0.258-0.546-0.005-0.24-0.082-0.42-0.23-0.538-0.152-0.114-0.342-0.172-0.571-0.172h-0.258v-0.252h0.258c0.168 0 0.319-0.049 0.455-0.147 0.139-0.097 0.211-0.251 0.217-0.461-0.003-0.22-0.072-0.381-0.208-0.484-0.139-0.098-0.311-0.147-0.516-0.147-0.247 0.003-0.435 0.081-0.564 0.234s-0.193 0.357-0.19 0.613h-0.295c0.006-0.322 0.1-0.585 0.284-0.788s0.436-0.307 0.761-0.31c0.27 0 0.508 0.067 0.712 0.201 0.202 0.137 0.306 0.354 0.311 0.651 0 0.185-0.046 0.342-0.14 0.471-0.095 0.131-0.233 0.22-0.414 0.268v0.010c0.448 0.093 0.676 0.37 0.683 0.828-0.008 0.324-0.122 0.573-0.343 0.749-0.218 0.179-0.484 0.268-0.801 0.268-0.347-0.003-0.627-0.104-0.838-0.301-0.213-0.197-0.311-0.477-0.294-0.838h0.297z"></path>
<path fill="#444444" d="M22.946 20.013c-0.025-0.191-0.097-0.343-0.217-0.455-0.12-0.108-0.278-0.163-0.473-0.166-0.186 0.003-0.341 0.051-0.464 0.143-0.119 0.1-0.211 0.224-0.277 0.374s-0.111 0.311-0.134 0.484c-0.025 0.174-0.036 0.34-0.036 0.498h0.009c0.085-0.169 0.207-0.304 0.365-0.404 0.154-0.099 0.326-0.149 0.515-0.149 0.334 0.003 0.601 0.107 0.8 0.31 0.193 0.2 0.291 0.469 0.294 0.806-0.003 0.331-0.107 0.6-0.312 0.806-0.205 0.211-0.474 0.32-0.809 0.327-0.4 0.003-0.694-0.131-0.88-0.401-0.186-0.274-0.279-0.733-0.279-1.377 0-0.108 0.012-0.253 0.037-0.434 0.023-0.179 0.074-0.362 0.152-0.551 0.078-0.191 0.196-0.352 0.352-0.483 0.159-0.131 0.372-0.197 0.639-0.201 0.595 0 0.933 0.291 1.014 0.874l-0.295-0.002zM22.23 20.59c-0.263 0.003-0.465 0.087-0.607 0.252-0.145 0.167-0.218 0.378-0.218 0.634 0 0.242 0.068 0.443 0.204 0.603 0.13 0.168 0.339 0.254 0.626 0.257 0.241-0.003 0.434-0.089 0.579-0.257 0.142-0.166 0.215-0.368 0.218-0.603 0-0.252-0.070-0.464-0.209-0.634-0.139-0.165-0.337-0.25-0.593-0.252z"></path>
<path fill="#444444" d="M24.775 19.141c0.24 0.003 0.437 0.054 0.592 0.154 0.152 0.101 0.27 0.238 0.351 0.411 0.082 0.168 0.139 0.352 0.171 0.553 0.028 0.204 0.042 0.404 0.042 0.602s-0.014 0.397-0.042 0.597c-0.032 0.197-0.089 0.383-0.171 0.556-0.082 0.17-0.199 0.306-0.351 0.411-0.154 0.106-0.352 0.16-0.592 0.164-0.239-0.003-0.433-0.058-0.583-0.164-0.154-0.104-0.272-0.241-0.354-0.411-0.082-0.172-0.139-0.358-0.171-0.556-0.031-0.201-0.046-0.398-0.046-0.593 0-0.201 0.015-0.403 0.046-0.607 0.032-0.201 0.089-0.385 0.171-0.553 0.082-0.173 0.199-0.31 0.354-0.411 0.15-0.1 0.344-0.151 0.583-0.154zM24.775 19.392c-0.188 0.003-0.337 0.051-0.45 0.143-0.115 0.093-0.202 0.217-0.262 0.37-0.058 0.15-0.095 0.308-0.114 0.475-0.022 0.168-0.032 0.329-0.032 0.482 0 0.148 0.011 0.305 0.032 0.47 0.009 0.079 0.023 0.161 0.042 0.245 0.020 0.083 0.044 0.163 0.072 0.239 0.060 0.15 0.147 0.273 0.262 0.369 0.113 0.101 0.263 0.152 0.45 0.152 0.19 0 0.344-0.051 0.462-0.152 0.114-0.097 0.201-0.22 0.258-0.369 0.059-0.153 0.098-0.314 0.118-0.484 0.015-0.165 0.023-0.322 0.023-0.47 0-0.153-0.008-0.313-0.023-0.482-0.020-0.167-0.060-0.325-0.118-0.475-0.029-0.076-0.065-0.147-0.107-0.211-0.043-0.064-0.093-0.117-0.151-0.159-0.117-0.092-0.272-0.14-0.462-0.143z"></path>
</svg>
