<?xml version="1.0" encoding="utf-8"?>
<!-- Generated by IcoMoon.io -->
<!DOCTYPE svg PUBLIC "-//W3C//DTD SVG 1.1//EN" "http://www.w3.org/Graphics/SVG/1.1/DTD/svg11.dtd">
<svg version="1.1" xmlns="http://www.w3.org/2000/svg" xmlns:xlink="http://www.w3.org/1999/xlink" width="32" height="32" viewBox="0 0 32 32">
<path fill="#444444" d="M23.452 19.218v2.706l-1.993-2.708-0.327-0.001v3.294h0.366v-2.646l1.953 2.648 0.367 0v-3.294z"></path>
<path fill="#444444" d="M19.227 19.141c-0.926 0-1.574 0.708-1.574 1.723 0 1.016 0.647 1.724 1.574 1.724s1.571-0.708 1.571-1.724c0-1.014-0.645-1.723-1.571-1.723zM19.227 22.239c-0.706 0-1.2-0.565-1.2-1.375s0.495-1.375 1.2-1.375c0.705 0 1.196 0.566 1.196 1.375s-0.492 1.375-1.196 1.375z"></path>
<path fill="#444444" d="M24.601 22.189v-1.219h1.814v-0.322h-1.814v-1.11h1.937v-0.322h-2.306v3.297h2.329v-0.323z"></path>
<path fill="#444444" d="M16.62 22.515l-1.053-1.43-1.053 1.43h-0.434l1.266-1.728-1.156-1.57h0.434l0.943 1.281 0.942-1.281h0.433l-1.156 1.57 1.267 1.728z"></path>
<path fill="#444444" d="M10.823 20.912c-0.069-0.059-0.143-0.104-0.216-0.138 0.239-0.13 0.396-0.375 0.396-0.66 0-0.211-0.078-0.897-1.072-0.897h-1.339v1.421h-0.446c-0.058 0.076-0.189 0.256-0.239 0.331h0.685v1.545h1.339c0.725 0 1.176-0.368 1.176-0.962 0-0.26-0.098-0.48-0.284-0.64zM8.963 19.561h0.969c0.262 0 0.701 0.066 0.701 0.524 0 0.347-0.256 0.553-0.701 0.553h-0.969v-1.077zM9.932 22.171h-0.969v-1.2h0.969c0.367 0 0.807 0.101 0.807 0.574 0 0.544-0.505 0.626-0.807 0.626z"></path>
<path fill="#444444" d="M12.849 19.141c-0.926 0-1.573 0.708-1.573 1.723 0 1.016 0.647 1.724 1.573 1.724s1.571-0.708 1.571-1.724c0-1.014-0.645-1.723-1.571-1.723zM12.849 22.239c-0.706 0-1.2-0.565-1.2-1.375s0.494-1.374 1.2-1.374c0.704 0 1.196 0.565 1.196 1.374s-0.492 1.375-1.196 1.375z"></path>
<path fill="#444444" d="M8.412 22.515l-1.268-1.727 1.156-1.57h-0.433l-0.943 1.281-0.942-1.281h-0.432l1.156 1.57-1.267 1.727h0.434l1.052-1.429 1.053 1.429z"></path>
<path fill="#444444" d="M13.611 10.143c-0.004 0.004-0.008 0.007-0.012 0.011 0.024-0.026 0.060-0.054 0.083-0.069 0.675-0.438 1.454-0.673 2.318-0.673 0.809 0 1.566 0.223 2.213 0.612 0.047 0.028 0.175 0.116 0.241 0.195v0c-0.624-0.688-2.458 0.788-2.458 0.788-0.634-0.489-1.218-0.822-1.652-0.94-0.363-0.1-0.614-0.016-0.734 0.076zM19.161 10.794c-0.019-0.021-0.040-0.041-0.059-0.062-0.158-0.173-0.352-0.215-0.526-0.204-0.159 0.050-0.894 0.315-1.8 1.17 0 0 1.020 0.992 1.644 2.005s0.997 1.811 0.768 2.916c0.696-0.765 1.121-1.782 1.121-2.898 0-1.13-0.435-2.158-1.148-2.927zM17.604 14.136c-0.276-0.31-0.688-0.755-1.232-1.296-0.119-0.118-0.244-0.242-0.377-0.369 0 0-0.198 0.198-0.457 0.46v-0c-0.331 0.334-0.76 0.77-0.998 1.025-0.424 0.452-1.638 1.873-1.707 2.67 0 0-0.27-0.632 0.323-2.089 0.388-0.953 1.558-2.383 2.047-2.85 0 0-0.447-0.492-1.007-0.831l-0.003-0.001c0 0-0.006-0.005-0.017-0.012-0.269-0.161-0.564-0.285-0.847-0.301-0.29 0.020-0.473 0.232-0.473 0.232-0.723 0.771-1.165 1.807-1.165 2.947 0 2.38 1.929 4.308 4.308 4.308 1.263 0 2.399-0.545 3.187-1.41-0-0.001-0.091-0.569-0.67-1.384-0.136-0.191-0.634-0.787-0.913-1.1z"></path>
</svg>
